<svg xmlns="http://www.w3.org/2000/svg" viewBox="0 0 48 48">
  <path fill="#c41200" d="M24.022,32.455l-6.727,6.725c-0.603,0.603-0.603,1.582,0,2.186l0.071,0.071c0.603,0.603,1.582,0.603,2.186,0l6.725-6.727c0.603-0.603,0.603-1.582,0-2.186l-0.071-0.071C25.604,31.852,24.625,31.852,24.022,32.455z"/>
  <path fill="#c41200" d="M31.455,23.978l6.725-6.727c0.603-0.603,0.603-1.582,0-2.186l-0.071-0.071c-0.603-0.603-1.582-0.603-2.186,0l-6.727,6.725c-0.603,0.603-0.603,1.582,0,2.186l0.071,0.071C29.869,24.578,30.848,24.578,31.455,23.978z"/>
  <path fill="#c41200" d="M23.978,16.545l-6.727-6.725c-0.603-0.603-1.582-0.603-2.186,0l-0.071,0.071c-0.603,0.603-0.603,1.582,0,2.186l6.725,6.727c0.603,0.603,1.582,0.603,2.186,0l0.071-0.071C24.578,18.131,24.578,17.148,23.978,16.545z"/>
  <path fill="#c41200" d="M16.545,24.022l-6.725,6.727c-0.603,0.603-0.603,1.582,0,2.186l0.071,0.071c0.603,0.603,1.582,0.603,2.186,0l6.727-6.725c0.603-0.603,0.603-1.582,0-2.186l-0.071-0.071C18.131,23.422,17.148,23.422,16.545,24.022z"/>
  <path fill="#c41200" d="M24,4C12.954,4,4,12.954,4,24s8.954,20,20,20s20-8.954,20-20S35.046,4,24,4z M24,38c-7.732,0-14-6.268-14-14s6.268-14,14-14s14,6.268,14,14S31.732,38,24,38z"/>
  <circle fill="#c41200" cx="24" cy="24" r="6"/>
</svg>

